<svg width="21" height="21" viewBox="0 0 21 21" fill="none" xmlns="http://www.w3.org/2000/svg">
<mask id="mask0_40_2393" style="mask-type:alpha" maskUnits="userSpaceOnUse" x="0" y="0" width="21" height="21">
<rect x="0.324707" y="0.481201" width="20" height="20" fill="#D9D9D9"/>
</mask>
<g mask="url(#mask0_40_2393)">
<path d="M4.82471 18.4812C4.41221 18.4812 4.05908 18.3343 3.76533 18.0406C3.47158 17.7468 3.32471 17.3937 3.32471 16.9812V5.4812H4.82471V16.9812H14.3247V18.4812H4.82471ZM7.82471 15.4812C7.41221 15.4812 7.05908 15.3343 6.76533 15.0406C6.47158 14.7468 6.32471 14.3937 6.32471 13.9812V3.9812C6.32471 3.5687 6.47158 3.21558 6.76533 2.92183C7.05908 2.62808 7.41221 2.4812 7.82471 2.4812H15.8247C16.2372 2.4812 16.5903 2.62808 16.8841 2.92183C17.1778 3.21558 17.3247 3.5687 17.3247 3.9812V13.9812C17.3247 14.3937 17.1778 14.7468 16.8841 15.0406C16.5903 15.3343 16.2372 15.4812 15.8247 15.4812H7.82471ZM7.82471 13.9812H15.8247V3.9812H7.82471V13.9812Z" fill="#1C1B1F"/>
</g>
</svg>
